<mxfile host="app.diagrams.net" modified="2024-03-11T11:55:21.836Z" agent="Mozilla/5.0 (Windows NT 10.0; Win64; x64) AppleWebKit/537.36 (KHTML, like Gecko) Chrome/122.0.0.0 Safari/537.36" etag="qn3wjskaFXCJpwKBIkJL" version="22.1.16" type="github">
  <diagram name="Page-1" id="CIX9CJY4FI9i-N0InVwW">
    <mxGraphModel dx="1050" dy="1630" grid="1" gridSize="10" guides="1" tooltips="1" connect="1" arrows="1" fold="1" page="1" pageScale="1" pageWidth="850" pageHeight="1100" background="none" math="0" shadow="0">
      <root>
        <mxCell id="0" />
        <mxCell id="1" parent="0" />
        <mxCell id="M_IPvMqlQU4EuF9h4yuK-1" value="" style="rounded=0;whiteSpace=wrap;html=1;fillColor=default;" vertex="1" parent="1">
          <mxGeometry x="80" y="35" width="300" height="265" as="geometry" />
        </mxCell>
        <mxCell id="M_IPvMqlQU4EuF9h4yuK-2" value="&lt;b&gt;&lt;font style=&quot;font-size: 16px;&quot;&gt;Digital Twins&lt;/font&gt;&lt;/b&gt;" style="rounded=0;whiteSpace=wrap;html=1;" vertex="1" parent="1">
          <mxGeometry x="170" y="70" width="120" height="60" as="geometry" />
        </mxCell>
        <mxCell id="M_IPvMqlQU4EuF9h4yuK-3" value="" style="shape=curlyBracket;whiteSpace=wrap;html=1;rounded=1;labelPosition=left;verticalLabelPosition=middle;align=right;verticalAlign=middle;rotation=90;" vertex="1" parent="1">
          <mxGeometry x="205.82" y="20.19" width="40" height="255" as="geometry" />
        </mxCell>
        <mxCell id="M_IPvMqlQU4EuF9h4yuK-4" value="Digital Shadow" style="rounded=1;whiteSpace=wrap;html=1;" vertex="1" parent="1">
          <mxGeometry x="100" y="180" width="110" height="30" as="geometry" />
        </mxCell>
        <mxCell id="M_IPvMqlQU4EuF9h4yuK-5" style="edgeStyle=orthogonalEdgeStyle;rounded=0;orthogonalLoop=1;jettySize=auto;html=1;exitX=0.5;exitY=1;exitDx=0;exitDy=0;" edge="1" parent="1" source="M_IPvMqlQU4EuF9h4yuK-4" target="M_IPvMqlQU4EuF9h4yuK-4">
          <mxGeometry relative="1" as="geometry" />
        </mxCell>
        <mxCell id="M_IPvMqlQU4EuF9h4yuK-6" value="Digital Model" style="rounded=1;whiteSpace=wrap;html=1;" vertex="1" parent="1">
          <mxGeometry x="100" y="220" width="110" height="30" as="geometry" />
        </mxCell>
        <mxCell id="M_IPvMqlQU4EuF9h4yuK-7" value="Digital Simulation" style="rounded=1;whiteSpace=wrap;html=1;" vertex="1" parent="1">
          <mxGeometry x="240" y="220" width="110" height="30" as="geometry" />
        </mxCell>
        <mxCell id="M_IPvMqlQU4EuF9h4yuK-8" value="Twin Data" style="rounded=1;whiteSpace=wrap;html=1;" vertex="1" parent="1">
          <mxGeometry x="240" y="180" width="110" height="30" as="geometry" />
        </mxCell>
        <mxCell id="M_IPvMqlQU4EuF9h4yuK-10" value="" style="endArrow=none;dashed=1;html=1;dashPattern=1 3;strokeWidth=2;rounded=0;" edge="1" parent="1">
          <mxGeometry width="50" height="50" relative="1" as="geometry">
            <mxPoint x="190" y="275.19" as="sourcePoint" />
            <mxPoint x="270" y="275.19" as="targetPoint" />
          </mxGeometry>
        </mxCell>
        <mxCell id="M_IPvMqlQU4EuF9h4yuK-11" value="" style="shape=curlyBracket;whiteSpace=wrap;html=1;rounded=1;flipH=1;labelPosition=right;verticalLabelPosition=middle;align=left;verticalAlign=middle;rotation=90;size=0.5;" vertex="1" parent="1">
          <mxGeometry x="220" y="180" width="20" height="300" as="geometry" />
        </mxCell>
        <mxCell id="M_IPvMqlQU4EuF9h4yuK-12" value="APIs" style="rounded=0;whiteSpace=wrap;html=1;" vertex="1" parent="1">
          <mxGeometry x="403" y="35.5" width="40" height="270" as="geometry" />
        </mxCell>
        <mxCell id="M_IPvMqlQU4EuF9h4yuK-13" value="" style="endArrow=classic;html=1;rounded=1;curved=0;dashed=1;" edge="1" parent="1" source="M_IPvMqlQU4EuF9h4yuK-17" target="M_IPvMqlQU4EuF9h4yuK-14">
          <mxGeometry width="50" height="50" relative="1" as="geometry">
            <mxPoint x="520" y="310" as="sourcePoint" />
            <mxPoint x="480" y="35.5" as="targetPoint" />
          </mxGeometry>
        </mxCell>
        <mxCell id="M_IPvMqlQU4EuF9h4yuK-18" value="&lt;i&gt;&lt;font style=&quot;font-size: 17px;&quot;&gt;prompts&lt;/font&gt;&lt;/i&gt;" style="edgeLabel;html=1;align=center;verticalAlign=middle;resizable=0;points=[];rotation=270;" vertex="1" connectable="0" parent="M_IPvMqlQU4EuF9h4yuK-13">
          <mxGeometry x="0.285" y="-2" relative="1" as="geometry">
            <mxPoint x="-22" y="57" as="offset" />
          </mxGeometry>
        </mxCell>
        <mxCell id="M_IPvMqlQU4EuF9h4yuK-14" value="&lt;font style=&quot;font-size: 15px;&quot;&gt;LLM&lt;/font&gt;" style="label;whiteSpace=wrap;html=1;align=center;verticalAlign=bottom;spacingLeft=0;spacingBottom=4;imageAlign=center;imageVerticalAlign=top;image=img/clipart/Gear_128x128.png" vertex="1" parent="1">
          <mxGeometry x="440" y="-80" width="120" height="80" as="geometry" />
        </mxCell>
        <mxCell id="M_IPvMqlQU4EuF9h4yuK-17" value="&lt;font style=&quot;font-size: 13px;&quot;&gt;&lt;i style=&quot;&quot;&gt;Boilerplate&lt;/i&gt;&lt;/font&gt;" style="sketch=0;outlineConnect=0;fontColor=#232F3E;gradientColor=none;fillColor=#666666;strokeColor=none;dashed=0;verticalLabelPosition=bottom;verticalAlign=top;align=center;html=1;fontSize=12;fontStyle=0;pointerEvents=1;shape=mxgraph.aws4.source_code;aspect=fixed;fillStyle=solid;" vertex="1" parent="1">
          <mxGeometry x="474.42" y="369" width="51.15" height="70" as="geometry" />
        </mxCell>
        <mxCell id="M_IPvMqlQU4EuF9h4yuK-19" value="" style="strokeWidth=2;html=1;shape=mxgraph.flowchart.multi-document;whiteSpace=wrap;align=center;" vertex="1" parent="1">
          <mxGeometry x="100" y="360" width="90" height="60" as="geometry" />
        </mxCell>
        <mxCell id="M_IPvMqlQU4EuF9h4yuK-21" value="&lt;i&gt;&lt;font style=&quot;font-size: 13px;&quot;&gt;Architecture&lt;/font&gt;&lt;/i&gt;" style="verticalLabelPosition=bottom;dashed=0;shadow=0;html=1;align=center;verticalAlign=top;shape=mxgraph.cabinets.cb_4p;" vertex="1" parent="1">
          <mxGeometry x="220" y="360" width="54.18" height="70" as="geometry" />
        </mxCell>
        <mxCell id="M_IPvMqlQU4EuF9h4yuK-28" value="&lt;i&gt;Methodology&lt;/i&gt;" style="sketch=0;pointerEvents=1;shadow=0;dashed=0;html=1;strokeColor=none;fillColor=#434445;aspect=fixed;labelPosition=center;verticalLabelPosition=bottom;verticalAlign=top;align=center;outlineConnect=0;shape=mxgraph.vvd.infrastructure;" vertex="1" parent="1">
          <mxGeometry x="307.83" y="360" width="72.17" height="70" as="geometry" />
        </mxCell>
        <mxCell id="M_IPvMqlQU4EuF9h4yuK-29" value="Taxonomy" style="text;html=1;strokeColor=none;fillColor=none;align=center;verticalAlign=middle;whiteSpace=wrap;rounded=0;fontStyle=2" vertex="1" parent="1">
          <mxGeometry x="111" y="435" width="60" height="20" as="geometry" />
        </mxCell>
        <mxCell id="M_IPvMqlQU4EuF9h4yuK-31" value="" style="endArrow=classic;html=1;rounded=0;exitX=1;exitY=0.5;exitDx=0;exitDy=0;dashed=1;" edge="1" parent="1" source="M_IPvMqlQU4EuF9h4yuK-14">
          <mxGeometry width="50" height="50" relative="1" as="geometry">
            <mxPoint x="590" y="-20" as="sourcePoint" />
            <mxPoint x="650" y="-40" as="targetPoint" />
          </mxGeometry>
        </mxCell>
        <mxCell id="M_IPvMqlQU4EuF9h4yuK-32" value="" style="html=1;shape=mxgraph.basic.isocube;isoAngle=15;" vertex="1" parent="1">
          <mxGeometry x="650" y="-93" width="70" height="79" as="geometry" />
        </mxCell>
        <mxCell id="M_IPvMqlQU4EuF9h4yuK-33" value="Syntax &amp;amp; Story telling" style="text;html=1;strokeColor=none;fillColor=none;align=center;verticalAlign=middle;whiteSpace=wrap;rounded=0;fontStyle=2" vertex="1" parent="1">
          <mxGeometry x="647.5" y="-10" width="82.5" height="20" as="geometry" />
        </mxCell>
        <mxCell id="M_IPvMqlQU4EuF9h4yuK-37" value="&lt;b&gt;&lt;i&gt;APPLICATION&lt;/i&gt;&lt;/b&gt;" style="rounded=0;whiteSpace=wrap;html=1;" vertex="1" parent="1">
          <mxGeometry x="545.57" y="35" width="300" height="25" as="geometry" />
        </mxCell>
        <mxCell id="M_IPvMqlQU4EuF9h4yuK-38" value="" style="rounded=1;whiteSpace=wrap;html=1;" vertex="1" parent="1">
          <mxGeometry x="545.57" y="80" width="304.43" height="150" as="geometry" />
        </mxCell>
        <mxCell id="M_IPvMqlQU4EuF9h4yuK-52" value="" style="group" vertex="1" connectable="0" parent="1">
          <mxGeometry x="580" y="100" width="234" height="30" as="geometry" />
        </mxCell>
        <mxCell id="M_IPvMqlQU4EuF9h4yuK-39" value="&lt;b&gt;1&lt;/b&gt;" style="ellipse;whiteSpace=wrap;html=1;aspect=fixed;" vertex="1" parent="M_IPvMqlQU4EuF9h4yuK-52">
          <mxGeometry width="30" height="30" as="geometry" />
        </mxCell>
        <mxCell id="M_IPvMqlQU4EuF9h4yuK-40" value="" style="shape=singleArrow;whiteSpace=wrap;html=1;" vertex="1" parent="M_IPvMqlQU4EuF9h4yuK-52">
          <mxGeometry x="30" y="10" width="20" height="10" as="geometry" />
        </mxCell>
        <mxCell id="M_IPvMqlQU4EuF9h4yuK-44" value="&lt;b&gt;2&lt;/b&gt;" style="ellipse;whiteSpace=wrap;html=1;aspect=fixed;" vertex="1" parent="M_IPvMqlQU4EuF9h4yuK-52">
          <mxGeometry x="51" width="30" height="30" as="geometry" />
        </mxCell>
        <mxCell id="M_IPvMqlQU4EuF9h4yuK-46" value="" style="shape=singleArrow;whiteSpace=wrap;html=1;" vertex="1" parent="M_IPvMqlQU4EuF9h4yuK-52">
          <mxGeometry x="81" y="10" width="20" height="10" as="geometry" />
        </mxCell>
        <mxCell id="M_IPvMqlQU4EuF9h4yuK-47" value="&lt;b&gt;3&lt;/b&gt;" style="ellipse;whiteSpace=wrap;html=1;aspect=fixed;" vertex="1" parent="M_IPvMqlQU4EuF9h4yuK-52">
          <mxGeometry x="102" width="30" height="30" as="geometry" />
        </mxCell>
        <mxCell id="M_IPvMqlQU4EuF9h4yuK-48" value="" style="shape=singleArrow;whiteSpace=wrap;html=1;" vertex="1" parent="M_IPvMqlQU4EuF9h4yuK-52">
          <mxGeometry x="132" y="10" width="20" height="10" as="geometry" />
        </mxCell>
        <mxCell id="M_IPvMqlQU4EuF9h4yuK-49" value="&lt;b&gt;4&lt;/b&gt;" style="ellipse;whiteSpace=wrap;html=1;aspect=fixed;" vertex="1" parent="M_IPvMqlQU4EuF9h4yuK-52">
          <mxGeometry x="153" width="30" height="30" as="geometry" />
        </mxCell>
        <mxCell id="M_IPvMqlQU4EuF9h4yuK-50" value="" style="shape=singleArrow;whiteSpace=wrap;html=1;" vertex="1" parent="M_IPvMqlQU4EuF9h4yuK-52">
          <mxGeometry x="183" y="10" width="20" height="10" as="geometry" />
        </mxCell>
        <mxCell id="M_IPvMqlQU4EuF9h4yuK-51" value="&lt;b&gt;5&lt;/b&gt;" style="ellipse;whiteSpace=wrap;html=1;aspect=fixed;" vertex="1" parent="M_IPvMqlQU4EuF9h4yuK-52">
          <mxGeometry x="204" width="30" height="30" as="geometry" />
        </mxCell>
        <mxCell id="M_IPvMqlQU4EuF9h4yuK-53" value="&lt;b&gt;Open Questions&lt;/b&gt;" style="html=1;whiteSpace=wrap;strokeColor=none;fillColor=#676565;labelPosition=center;verticalLabelPosition=middle;verticalAlign=top;align=center;fontSize=12;outlineConnect=0;spacingTop=-6;fontColor=#FFFFFF;sketch=0;shape=mxgraph.sitemap.form;" vertex="1" parent="1">
          <mxGeometry x="586.2199999999999" y="145" width="100" height="70" as="geometry" />
        </mxCell>
        <mxCell id="M_IPvMqlQU4EuF9h4yuK-56" value="&lt;b&gt;Closed Questions&lt;/b&gt;" style="html=1;whiteSpace=wrap;strokeColor=none;fillColor=#676565;labelPosition=center;verticalLabelPosition=middle;verticalAlign=top;align=center;fontSize=12;outlineConnect=0;spacingTop=-6;fontColor=#FFFFFF;sketch=0;shape=mxgraph.sitemap.form;" vertex="1" parent="1">
          <mxGeometry x="701.79" y="145" width="110" height="70" as="geometry" />
        </mxCell>
        <mxCell id="M_IPvMqlQU4EuF9h4yuK-59" value="&lt;b&gt;&lt;i&gt;FRAMEWORK&lt;/i&gt;&lt;/b&gt;" style="rounded=0;whiteSpace=wrap;html=1;" vertex="1" parent="1">
          <mxGeometry x="547" y="250" width="300" height="25" as="geometry" />
        </mxCell>
        <mxCell id="M_IPvMqlQU4EuF9h4yuK-60" value="" style="rounded=1;whiteSpace=wrap;html=1;" vertex="1" parent="1">
          <mxGeometry x="546.0000000000001" y="289" width="304.43" height="150" as="geometry" />
        </mxCell>
        <mxCell id="M_IPvMqlQU4EuF9h4yuK-58" value="" style="outlineConnect=0;fontColor=#ffffff;fillColor=#303031;strokeColor=none;dashed=0;verticalLabelPosition=bottom;verticalAlign=top;align=center;html=1;fontSize=12;fontStyle=0;aspect=fixed;pointerEvents=1;shape=mxgraph.aws4.gear;strokeWidth=10;perimeterSpacing=6;shadow=1;" vertex="1" parent="1">
          <mxGeometry x="826.21" y="281.28" width="38.72" height="38.72" as="geometry" />
        </mxCell>
        <mxCell id="M_IPvMqlQU4EuF9h4yuK-62" value="" style="strokeWidth=2;html=1;shape=mxgraph.flowchart.multi-document;whiteSpace=wrap;align=center;" vertex="1" parent="1">
          <mxGeometry x="580" y="330" width="80" height="60" as="geometry" />
        </mxCell>
        <mxCell id="M_IPvMqlQU4EuF9h4yuK-63" value="" style="verticalLabelPosition=bottom;dashed=0;shadow=0;html=1;align=center;verticalAlign=top;shape=mxgraph.cabinets.cb_4p;" vertex="1" parent="1">
          <mxGeometry x="682.79" y="330" width="57.21" height="70" as="geometry" />
        </mxCell>
        <mxCell id="M_IPvMqlQU4EuF9h4yuK-64" value="" style="sketch=0;pointerEvents=1;shadow=0;dashed=0;html=1;strokeColor=none;fillColor=#434445;aspect=fixed;labelPosition=center;verticalLabelPosition=bottom;verticalAlign=top;align=center;outlineConnect=0;shape=mxgraph.vvd.infrastructure;" vertex="1" parent="1">
          <mxGeometry x="760" y="334.18" width="61.49" height="59.65" as="geometry" />
        </mxCell>
      </root>
    </mxGraphModel>
  </diagram>
</mxfile>
